<?xml version="1.0" standalone="no"?><!DOCTYPE svg PUBLIC "-//W3C//DTD SVG 1.1//EN" "http://www.w3.org/Graphics/SVG/1.1/DTD/svg11.dtd"><svg t="1625538432338" class="icon" viewBox="0 0 1024 1024" version="1.1" xmlns="http://www.w3.org/2000/svg" p-id="931" xmlns:xlink="http://www.w3.org/1999/xlink" width="200" height="200"><defs><style type="text/css"></style></defs><path d="M593.6 858.2c-8.5 0-16.7-3.4-22.7-9.5-7.3-7.3-10.6-17.8-8.8-28 0.1-0.8 14.6-84.8 18.3-106.6 1.1-6.6 4.2-12.6 8.9-17.3l257-257c11.2-11.2 27.1-16.2 43.7-13.8 13.4 1.9 26.5 8.6 36.7 18.9l48.2 48.2c10.2 10.2 16.9 23.3 18.9 36.7 2.4 16.6-2.6 32.6-13.8 43.7l-257 257c-4.4 4.4-10.1 7.5-16.2 8.7-22.3 4.6-104.5 18-108 18.5-1.8 0.3-3.5 0.5-5.2 0.5z m48.1-123.3c-2.3 13.5-5.8 33.8-9 52.4 18.5-3.1 38.8-6.6 51.9-9l242.5-242.5-43.2-43.2-242.2 242.3z" fill="#bfbfbf" p-id="932"></path><path d="M835.2 941.8H133.7c-52.9 0-96-43-96-96V267.5c0-52.9 43-96 96-96h701.6c52.9 0 96 43 96 96v196h-64v-196c0-17.6-14.3-32-32-32H133.7c-17.6 0-32 14.3-32 32v578.4c0 17.6 14.3 32 32 32h701.6c17.6 0 32-14.3 32-32V609h64v236.9c-0.1 52.8-43.1 95.9-96.1 95.9z" fill="#bfbfbf" p-id="933"></path><path d="M83.5 354.4h823.7v64H83.5zM303.9 298.1c-17.7 0-32-14.3-32-32V114.2c0-17.7 14.3-32 32-32s32 14.3 32 32v151.9c0 17.7-14.3 32-32 32zM686.8 298.1c-17.7 0-32-14.3-32-32V114.2c0-17.7 14.3-32 32-32s32 14.3 32 32v151.9c0 17.7-14.4 32-32 32z" fill="#bfbfbf" p-id="934"></path></svg>